# xmcd
#
# Track frame offsets:
#	150
#	18819
#	39765
#	60223
#	84149
#	99231
#	127106
#	147842
#	161642
#	172974
#
# Disc length: 3283 seconds
#
# Revision: 1
# Processed by: cddbd v1.4PL0 Copyright (c) Steve Scherf et al.
# Submitted via: CDmax 1.8
#
DISCID=670cd10a
DTITLE=North Mississippi Allstars - Shake Hands With Shorty
DYEAR=2000
DGENRE=Blues
TTITLE0=Shake 'Em On Down
TTITLE1=Drop Down Mama
TTITLE2=Po Black Maddie
TTITLE3=Skinny Woman
TTITLE4=Drinkin' Muddy Water
TTITLE5=Goin' Down South
TTITLE6=KC Jones
TTITLE7=Station Blues
TTITLE8=Someday Baby
TTITLE9=All Night Long
EXTD=
EXTT0=
EXTT1=
EXTT2=
EXTT3=
EXTT4=
EXTT5=
EXTT6=
EXTT7=
EXTT8=
EXTT9=
PLAYORDER=
